<svg version="1.2" xmlns="http://www.w3.org/2000/svg" viewBox="0 0 1440 487" width="100%" height="100%"><defs><linearGradient id="P" gradientUnits="userSpaceOnUse"/><linearGradient id="g1" x1="720" y1="487" x2="720" y2=".1" href="#P"><stop offset=".05" stop-color="#275fa5"/><stop offset=".95" stop-color="#8ed1fc"/></linearGradient><linearGradient id="g2" x1="720" y1="487" x2="720" y2="251.7" href="#P"><stop offset=".05" stop-color="#275fa5"/><stop offset=".95" stop-color="#8ed1fc"/></linearGradient><linearGradient id="g3" x1="720" y1="487" x2="720" y2="251.7" href="#P"><stop offset=".05" stop-color="#275fa5"/><stop offset=".95" stop-color="#8ed1fc"/></linearGradient><linearGradient id="g4" x1="720" y1="487" x2="720" y2="251.7" href="#P"><stop offset=".05" stop-color="#275fa5"/><stop offset=".95" stop-color="#8ed1fc"/></linearGradient><linearGradient id="g5" x1="720" y1="487" x2="720" y2="251.7" href="#P"><stop offset=".05" stop-color="#275fa5"/><stop offset=".95" stop-color="#8ed1fc"/></linearGradient><linearGradient id="g6" x1="720" y1="487" x2="720" y2="251.7" href="#P"><stop offset=".05" stop-color="#275fa5"/><stop offset=".95" stop-color="#8ed1fc"/></linearGradient></defs><style>.a{opacity:.5;fill:url(#g1)}.b{fill:url(#g2)}.c{fill:url(#g3)}.d{fill:url(#g4)}.e{fill:url(#g5)}.f{fill:url(#g6)}</style><path class="a" d="m0 487v-400c115.6-14.2 231.3-28.5 319-7 87.7 21.5 147.5 78.7 242 67 94.5-11.7 223.5-92.2 331-126 107.5-33.8 193.3-20.8 281-2 87.7 18.8 177.4 43.4 267 68v400z"/><path class="b" d="m0 487v-200c110.6-24.6 221.1-49.2 310-26 88.9 23.2 156.1 94.4 262 98 105.9 3.6 250.4-60.2 340-64 89.6-3.8 124.2 52.3 203 61 78.8 8.7 201.9-30.2 325-69v200z"/><path class="c" d="m0 487v-200c110.6-24.6 221.1-49.2 310-26 88.9 23.2 156.1 94.4 262 98 105.9 3.6 250.4-60.2 340-64 89.6-3.8 124.2 52.3 203 61 78.8 8.7 201.9-30.2 325-69v200z"/><path class="d" d="m0 487v-200c110.6-24.6 221.1-49.2 310-26 88.9 23.2 156.1 94.4 262 98 105.9 3.6 250.4-60.2 340-64 89.6-3.8 124.2 52.3 203 61 78.8 8.7 201.9-30.2 325-69v200z"/><path class="e" d="m0 487v-200c110.6-24.6 221.1-49.2 310-26 88.9 23.2 156.1 94.4 262 98 105.9 3.6 250.4-60.2 340-64 89.6-3.8 124.2 52.3 203 61 78.8 8.7 201.9-30.2 325-69v200z"/><path class="f" d="m0 487v-200c110.6-24.6 221.1-49.2 310-26 88.9 23.2 156.1 94.4 262 98 105.9 3.6 250.4-60.2 340-64 89.6-3.8 124.2 52.3 203 61 78.8 8.7 201.9-30.2 325-69v200z"/></svg>